# xmcd
#
# Track frame offsets:
#  150
#  5861
#  9332
#  14506
#  18329
#  25554
#  27194
#  28843
#  34918
#  36963
#  41171
#  43338
#  47520
#  50623
#  54973
#  56677
#  61082
#  62738
#  64598
#  68296
#  76427
#  79499
#  82519
#  87501
#  89095
#  93678
#  97769
#  110586
#  122338
#  136742
#
# Disc length: 2063 seconds
#
# Revision: 0
# Processed by: cddbd v1.5.1PL0 Copyright (c) Steve Scherf et al.
# Submitted via: Collectorz.com_Music_Collector 6.9
#
DISCID=7f080d1e
DTITLE=Paul Kelly - Smoke - Interview Disc
DYEAR=1999
DGENRE=Country Alternative - Interview Track
TTITLE0=Paul Kelly interviewed by Ed Nimmervol
TTITLE1=Paul Kelly interviewed by Ed Nimmervol
TTITLE2=Paul Kelly interviewed by Ed Nimmervol
TTITLE3=Paul Kelly interviewed by Ed Nimmervol
TTITLE4=Paul Kelly interviewed by Ed Nimmervol
TTITLE5=Paul Kelly interviewed by Ed Nimmervol
TTITLE6=Paul Kelly interviewed by Ed Nimmervol
TTITLE7=Paul Kelly interviewed by Ed Nimmervol
TTITLE8=Paul Kelly interviewed by Ed Nimmervol
TTITLE9=Paul Kelly interviewed by Ed Nimmervol
TTITLE10=Paul Kelly interviewed by Ed Nimmervol
TTITLE11=Paul Kelly interviewed by Ed Nimmervol
TTITLE12=Paul Kelly interviewed by Ed Nimmervol
TTITLE13=Paul Kelly interviewed by Ed Nimmervol
TTITLE14=Paul Kelly interviewed by Ed Nimmervol
TTITLE15=Paul Kelly interviewed by Ed Nimmervol
TTITLE16=Paul Kelly interviewed by Ed Nimmervol
TTITLE17=Paul Kelly interviewed by Ed Nimmervol
TTITLE18=Paul Kelly interviewed by Ed Nimmervol
TTITLE19=Paul Kelly interviewed by Ed Nimmervol
TTITLE20=Paul Kelly interviewed by Ed Nimmervol
TTITLE21=Paul Kelly interviewed by Ed Nimmervol
TTITLE22=Paul Kelly interviewed by Ed Nimmervol
TTITLE23=Paul Kelly interviewed by Ed Nimmervol
TTITLE24=Paul Kelly interviewed by Ed Nimmervol
TTITLE25=Paul Kelly interviewed by Ed Nimmervol
TTITLE26=You Can't Take It With You
TTITLE27=Gathering Storm
TTITLE28=I Don't Remember A Thing
TTITLE29=Shy Before You Lord
EXTD=
EXTT0=
EXTT1=
EXTT2=
EXTT3=
EXTT4=
EXTT5=
EXTT6=
EXTT7=
EXTT8=
EXTT9=
EXTT10=
EXTT11=
EXTT12=
EXTT13=
EXTT14=
EXTT15=
EXTT16=
EXTT17=
EXTT18=
EXTT19=
EXTT20=
EXTT21=
EXTT22=
EXTT23=
EXTT24=
EXTT25=
EXTT26=
EXTT27=
EXTT28=
EXTT29=
PLAYORDER=
